<svg width="40" height="40" viewBox="0 0 40 40" fill="none" xmlns="http://www.w3.org/2000/svg">
<circle cx="20" cy="20" r="20" fill="white"/>
<path d="M16.5206 21.8456C15.4806 21.8456 14.6316 20.9011 14.6316 19.7444C14.6316 18.5876 15.4594 17.6431 16.5206 17.6431C17.5712 17.6431 18.4308 18.5876 18.4096 19.7444C18.4096 20.9011 17.5712 21.8456 16.5206 21.8456ZM23.4941 21.8456C22.454 21.8456 21.604 20.9011 21.604 19.7444C21.604 18.5876 22.4328 17.6431 23.4941 17.6431C24.5447 17.6431 25.4043 18.5876 25.3831 19.7444C25.3831 20.9011 24.5553 21.8456 23.4941 21.8456ZM18.1253 12.3227L17.8166 11.7598L17.1832 11.8653C15.7192 12.1093 14.3266 12.5465 13.0254 13.1458L12.7965 13.2512L12.6551 13.4598C10.0418 17.3142 9.3258 21.1084 9.68032 24.836L9.71897 25.2423L10.0491 25.4822C11.7885 26.7463 13.4742 27.5186 15.1273 28.0254L15.9166 28.2674L17.0301 25.5504C18.9397 26.0224 21.0592 26.0225 22.969 25.5508L24.0757 28.2681L24.8668 28.0254C26.5173 27.5191 28.2137 26.7469 29.9466 25.4809L30.2726 25.2428L30.3131 24.8412C30.7491 20.521 29.616 16.7575 27.3547 13.4563L27.2128 13.2492L26.9846 13.1448C25.6767 12.5466 24.2852 12.1096 22.8309 11.8655L22.2132 11.7618L21.8987 12.3034C21.8112 12.4542 21.7215 12.6244 21.6364 12.7966C20.5441 12.6844 19.456 12.6842 18.3726 12.7963C18.2882 12.6271 18.2025 12.4636 18.1253 12.3227ZM14.7144 24.61C14.9124 24.724 15.1197 24.8356 15.3256 24.9378L14.8764 26.0338C13.7559 25.6256 12.6184 25.0635 11.4476 24.2555C11.2231 21.1175 11.8609 17.9507 14.012 14.686C14.9096 14.291 15.8535 13.9825 16.8361 13.7727C16.8963 13.8981 16.9524 14.0204 16.9984 14.1289L17.2713 14.7721L17.9626 14.6707C19.3152 14.4723 20.6772 14.4721 22.0523 14.671L22.7424 14.7708L23.0147 14.1289C23.0621 14.0172 23.1167 13.8952 23.1743 13.773C24.1525 13.983 25.098 14.2919 26.0029 14.6879C27.8781 17.5083 28.8241 20.6541 28.5486 24.255C27.3837 25.0623 26.2422 25.6246 25.1193 26.0333L24.6735 24.9387C24.8799 24.8362 25.0879 24.7243 25.2865 24.61C25.7763 24.3277 26.3039 23.9757 26.6402 23.6395L25.3606 22.36C25.1969 22.5237 24.837 22.7805 24.3831 23.0421C23.9388 23.2981 23.498 23.5049 23.2164 23.598C21.2126 24.2606 18.7883 24.2606 16.7844 23.598C16.5029 23.5049 16.0621 23.2981 15.6177 23.0421C15.1638 22.7805 14.8039 22.5237 14.6402 22.36L13.3607 23.6395C13.6969 23.9757 14.2245 24.3277 14.7144 24.61Z" fill="#2D2572"/>
</svg>
