<svg width="40" height="40" viewBox="0 0 40 40" fill="none" xmlns="http://www.w3.org/2000/svg">
<circle cx="20" cy="20" r="20" fill="white"/>
<path d="M20.001 17C18.3436 17 17.001 18.3431 17.001 20C17.001 21.6573 18.3441 23 20.001 23C21.6583 23 23.001 21.6569 23.001 20C23.001 18.3427 21.6579 17 20.001 17ZM20.001 15C22.7614 15 25.001 17.2371 25.001 20C25.001 22.7605 22.7639 25 20.001 25C17.2405 25 15.001 22.7629 15.001 20C15.001 17.2395 17.2381 15 20.001 15ZM26.501 14.7491C26.501 15.4393 25.9402 15.9992 25.251 15.9992C24.5609 15.9992 24.001 15.4384 24.001 14.7491C24.001 14.0599 24.5617 13.5 25.251 13.5C25.9393 13.4991 26.501 14.0599 26.501 14.7491ZM20.001 12C17.5265 12 17.1232 12.0065 15.9723 12.0578C15.1881 12.0946 14.6625 12.2001 14.1742 12.3897C13.7402 12.558 13.4271 12.759 13.0935 13.0925C12.7587 13.4274 12.558 13.7396 12.3904 14.1738C12.2004 14.6633 12.0949 15.1881 12.0588 15.9711C12.007 17.0752 12.001 17.4611 12.001 20C12.001 22.4745 12.0075 22.8778 12.0588 24.0286C12.0956 24.8124 12.2012 25.3388 12.3903 25.826C12.5591 26.2606 12.7605 26.5744 13.0925 26.9064C13.4286 27.2421 13.7418 27.4434 14.1719 27.6094C14.6662 27.8005 15.1915 27.9061 15.9721 27.9422C17.0762 27.9939 17.462 28 20.001 28C22.4755 28 22.8788 27.9934 24.0296 27.9422C24.8117 27.9055 25.3385 27.7996 25.827 27.6106C26.2604 27.4423 26.5752 27.2402 26.9074 26.9085C27.2436 26.5718 27.4445 26.2594 27.6107 25.8283C27.8013 25.3358 27.9071 24.8098 27.9432 24.0289C27.9949 22.9248 28.001 22.5389 28.001 20C28.001 17.5255 27.9944 17.1222 27.9432 15.9714C27.9064 15.1891 27.8005 14.6615 27.6113 14.1732C27.4434 13.7404 27.2417 13.4263 26.9084 13.0925C26.573 12.7571 26.2616 12.5569 25.8271 12.3894C25.338 12.1995 24.8124 12.094 24.0298 12.0578C22.9258 12.006 22.5399 12 20.001 12ZM20.001 10C22.7176 10 23.0568 10.01 24.1235 10.06C25.1876 10.1092 25.9135 10.2775 26.551 10.525C27.2101 10.7792 27.7668 11.1225 28.3226 11.6783C28.8776 12.2342 29.221 12.7925 29.476 13.45C29.7226 14.0867 29.891 14.8133 29.941 15.8775C29.9885 16.9442 30.001 17.2833 30.001 20C30.001 22.7167 29.991 23.0558 29.941 24.1225C29.8918 25.1867 29.7226 25.9125 29.476 26.55C29.2218 27.2092 28.8776 27.7658 28.3226 28.3217C27.7668 28.8767 27.2076 29.22 26.551 29.475C25.9135 29.7217 25.1876 29.89 24.1235 29.94C23.0568 29.9875 22.7176 30 20.001 30C17.2843 30 16.9451 29.99 15.8785 29.94C14.8143 29.8908 14.0893 29.7217 13.451 29.475C12.7926 29.2208 12.2351 28.8767 11.6793 28.3217C11.1235 27.7658 10.781 27.2067 10.526 26.55C10.2785 25.9125 10.111 25.1867 10.061 24.1225C10.0135 23.0558 10.001 22.7167 10.001 20C10.001 17.2833 10.011 16.9442 10.061 15.8775C10.1101 14.8125 10.2785 14.0875 10.526 13.45C10.7801 12.7917 11.1235 12.2342 11.6793 11.6783C12.2351 11.1225 12.7935 10.78 13.451 10.525C14.0885 10.2775 14.8135 10.11 15.8785 10.06C16.9451 10.0125 17.2843 10 20.001 10Z" fill="#2D2572"/>
</svg>
