<svg width="40" height="40" viewBox="0 0 40 40" fill="none" xmlns="http://www.w3.org/2000/svg">
<circle cx="20" cy="20" r="20" fill="white"/>
<path d="M20.0011 28.6667C24.7876 28.6667 28.6677 24.7865 28.6677 20C28.6677 15.2136 24.7876 11.3334 20.0011 11.3334C15.2146 11.3334 11.3344 15.2136 11.3344 20C11.3344 24.7865 15.2146 28.6667 20.0011 28.6667ZM20.0011 30.8334C14.018 30.8334 9.16772 25.9831 9.16772 20C9.16772 14.0169 14.018 9.16669 20.0011 9.16669C25.9841 9.16669 30.8344 14.0169 30.8344 20C30.8344 25.9831 25.9841 30.8334 20.0011 30.8334ZM16.6321 21.2684L13.9258 20.4237C13.3409 20.2443 13.3375 19.8419 14.0568 19.5527L24.6009 15.4799C25.2125 15.2295 25.5602 15.5458 25.362 16.3345L23.566 24.8075C23.441 25.4103 23.0774 25.5538 22.5739 25.2756L19.8104 23.2308L18.5224 24.4739C18.3901 24.6016 18.2824 24.7113 18.0796 24.7388C17.8767 24.7663 17.7094 24.7062 17.5878 24.3699L16.6458 21.2597L16.6321 21.2684Z" fill="#2D2572"/>
</svg>
