<svg width="40" height="40" viewBox="0 0 40 40" fill="none" xmlns="http://www.w3.org/2000/svg">
<circle cx="20" cy="20" r="20" fill="white"/>
<path d="M28.101 14.361C28.0172 14.0333 27.7801 13.7861 27.5087 13.7098C27.0263 13.5753 24.6845 13.2667 19.7345 13.2667C14.7845 13.2667 12.4432 13.5755 11.9589 13.7102C11.69 13.785 11.4529 14.0322 11.368 14.361C11.2483 14.8278 10.9345 16.7822 10.9345 19.8667C10.9345 22.9511 11.2483 24.9055 11.3684 25.3737C11.4518 25.7001 11.6889 25.9472 11.9592 26.0231C12.4432 26.1579 14.7845 26.4667 19.7345 26.4667C24.6845 26.4667 27.0263 26.158 27.5101 26.0231C27.779 25.9483 28.0161 25.7012 28.101 25.3724C28.2207 24.9055 28.5345 22.9467 28.5345 19.8667C28.5345 16.7867 28.2207 14.8278 28.101 14.361ZM30.232 13.8146C30.7345 15.7747 30.7345 19.8667 30.7345 19.8667C30.7345 19.8667 30.7345 23.9587 30.232 25.9186C29.9521 27.0027 29.1351 27.8546 28.0996 28.1426C26.2202 28.6667 19.7345 28.6667 19.7345 28.6667C19.7345 28.6667 13.2526 28.6667 11.3694 28.1426C10.33 27.8507 9.51309 26.9986 9.23693 25.9186C8.7345 23.9587 8.7345 19.8667 8.7345 19.8667C8.7345 19.8667 8.7345 15.7747 9.23693 13.8146C9.51692 12.7307 10.3339 11.8786 11.3694 11.5906C13.2526 11.0667 19.7345 11.0667 19.7345 11.0667C19.7345 11.0667 26.2202 11.0667 28.0996 11.5906C29.139 11.8827 29.9559 12.7346 30.232 13.8146ZM17.5345 23.7167V16.0167L24.1345 19.8667L17.5345 23.7167Z" fill="#3A2F83"/>
</svg>
